<svg width="20" height="19" viewBox="0 0 20 19" fill="none" xmlns="http://www.w3.org/2000/svg">
<path d="M9.6704 18.9215C14.3052 18.9215 18.0625 15.1691 18.0625 10.5403C18.0625 5.91154 14.3052 2.15918 9.6704 2.15918C5.03559 2.15918 1.27832 5.91154 1.27832 10.5403C1.27832 15.1691 5.03559 18.9215 9.6704 18.9215Z" fill="#FF89C8"/>
<path d="M15.8339 17.4267C16.2961 17.5054 16.8388 16.3864 17.3574 15.2966C18.4429 13.0152 19.133 11.5649 19.1855 9.51485C19.2303 7.76765 18.7443 8.22622 18.2715 4.34175C18.1155 3.06054 15.9238 3.06301 15.4777 2.45463C14.7243 1.42699 15.8804 1.00317 14.0057 0.38584C10.4943 -0.770442 8.90645 1.0258 6.67647 1.18055C6.62012 1.18446 5.51462 2.26417 4.89721 2.32C3.81549 2.41782 2.25499 2.24955 1.55539 0.603593C0.901262 -0.935397 0.467958 3.56184 1.05262 4.1184C1.54902 4.59094 2.40532 5.77699 2.42717 5.86324C2.45191 5.96086 0.39109 3.68098 0.0470783 4.62052C-0.200506 5.29669 0.578836 8.7755 1.20837 8.90625C1.73482 9.01557 3.02236 7.2826 2.73186 7.99335C2.05816 9.64167 6.10913 10.6934 10.9587 7.38475C11.1307 7.26741 10.9682 7.45455 11.5681 8.90625C12.3247 10.7372 12.4954 10.8364 12.4822 11.3407C12.4536 12.4323 11.6329 12.7537 11.8728 13.4708C12.0671 14.0515 12.8264 14.5011 13.3963 14.3837C14.0394 14.2511 14.1496 13.4566 14.6151 13.4708C15.0138 13.4829 15.487 14.0826 15.5292 14.688C15.618 15.9632 13.7276 16.314 13.3963 18.0353C13.2093 19.0067 15.4091 17.3543 15.8339 17.4267V17.4267Z" fill="#1E1F24"/>
</svg>
