<?xml version="1.0" encoding="UTF-8"?>
<svg xmlns="http://www.w3.org/2000/svg" xmlns:xlink="http://www.w3.org/1999/xlink" width="148px" height="22px" viewBox="0 0 148 22" version="1.1">
<defs>
<linearGradient id="linear0" gradientUnits="userSpaceOnUse" x1="87.2085" y1="28.6089" x2="103.526" y2="6.18063" gradientTransform="matrix(0.729064,0,0,0.733333,0,0)">
<stop offset="0" style="stop-color:rgb(43.137255%,15.686275%,87.843137%);stop-opacity:1;"/>
<stop offset="1" style="stop-color:rgb(92.156863%,18.431373%,57.647059%);stop-opacity:1;"/>
</linearGradient>
</defs>
<g id="surface1">
<path style=" stroke:none;fill-rule:nonzero;fill:rgb(100%,100%,100%);fill-opacity:1;" d="M 5.527344 17.722656 C 4.632812 17.722656 3.824219 17.578125 3.113281 17.28125 C 2.402344 16.988281 1.832031 16.554688 1.398438 15.980469 C 0.980469 15.40625 0.757812 14.714844 0.734375 13.902344 L 3.917969 13.902344 C 3.964844 14.363281 4.125 14.714844 4.390625 14.960938 C 4.660156 15.195312 5.011719 15.3125 5.441406 15.3125 C 5.886719 15.3125 6.234375 15.210938 6.492188 15.011719 C 6.75 14.800781 6.875 14.515625 6.875 14.152344 C 6.875 13.84375 6.773438 13.59375 6.5625 13.394531 C 6.363281 13.195312 6.113281 13.03125 5.808594 12.902344 C 5.515625 12.773438 5.097656 12.625 4.550781 12.460938 C 3.757812 12.214844 3.109375 11.96875 2.605469 11.722656 C 2.105469 11.476562 1.675781 11.113281 1.3125 10.628906 C 0.949219 10.148438 0.769531 9.523438 0.769531 8.746094 C 0.769531 7.597656 1.183594 6.699219 2.011719 6.054688 C 2.839844 5.398438 3.917969 5.070312 5.25 5.070312 C 6.601562 5.070312 7.691406 5.398438 8.519531 6.054688 C 9.347656 6.699219 9.792969 7.601562 9.851562 8.765625 L 6.613281 8.765625 C 6.589844 8.367188 6.445312 8.054688 6.175781 7.832031 C 5.910156 7.597656 5.5625 7.480469 5.144531 7.480469 C 4.78125 7.480469 4.492188 7.578125 4.269531 7.777344 C 4.046875 7.96875 3.9375 8.242188 3.9375 8.605469 C 3.9375 9.003906 4.125 9.316406 4.496094 9.539062 C 4.871094 9.761719 5.453125 10.003906 6.246094 10.261719 C 7.039062 10.53125 7.679688 10.789062 8.171875 11.035156 C 8.671875 11.28125 9.105469 11.640625 9.464844 12.109375 C 9.828125 12.578125 10.007812 13.183594 10.007812 13.921875 C 10.007812 14.625 9.828125 15.265625 9.464844 15.839844 C 9.117188 16.414062 8.601562 16.871094 7.925781 17.210938 C 7.25 17.554688 6.449219 17.722656 5.527344 17.722656 Z M 25.988281 5.246094 L 25.988281 17.601562 L 22.996094 17.601562 L 22.996094 12.511719 L 18.339844 12.511719 L 18.339844 17.601562 L 15.347656 17.601562 L 15.347656 5.246094 L 18.339844 5.246094 L 18.339844 10.085938 L 22.996094 10.085938 L 22.996094 5.246094 Z M 39.292969 15.417969 L 34.710938 15.417969 L 33.972656 17.601562 L 30.84375 17.601562 L 35.285156 5.246094 L 38.75 5.246094 L 43.195312 17.601562 L 40.027344 17.601562 Z M 38.523438 13.09375 L 37 8.570312 L 35.496094 13.09375 Z M 54.3125 17.601562 L 51.757812 12.9375 L 51.039062 12.9375 L 51.039062 17.601562 L 48.046875 17.601562 L 48.046875 5.246094 L 53.070312 5.246094 C 54.039062 5.246094 54.859375 5.414062 55.535156 5.753906 C 56.226562 6.09375 56.738281 6.566406 57.078125 7.164062 C 57.414062 7.75 57.585938 8.40625 57.585938 9.132812 C 57.585938 9.957031 57.351562 10.6875 56.882812 11.335938 C 56.429688 11.980469 55.753906 12.4375 54.855469 12.707031 L 57.6875 17.601562 Z M 51.039062 10.804688 L 52.894531 10.804688 C 53.441406 10.804688 53.851562 10.671875 54.121094 10.402344 C 54.398438 10.132812 54.539062 9.75 54.539062 9.257812 C 54.539062 8.789062 54.398438 8.417969 54.121094 8.148438 C 53.851562 7.878906 53.441406 7.742188 52.894531 7.742188 L 51.039062 7.742188 Z M 65.953125 7.65625 L 65.953125 10.15625 L 69.960938 10.15625 L 69.960938 12.476562 L 65.953125 12.476562 L 65.953125 15.1875 L 70.484375 15.1875 L 70.484375 17.601562 L 62.960938 17.601562 L 62.960938 5.246094 L 70.484375 5.246094 L 70.484375 7.65625 Z M 86.917969 17.601562 L 83.925781 17.601562 L 78.917969 9.980469 L 78.917969 17.601562 L 75.925781 17.601562 L 75.925781 5.246094 L 78.917969 5.246094 L 83.925781 12.902344 L 83.925781 5.246094 L 86.917969 5.246094 Z M 95.578125 7.65625 L 95.578125 10.15625 L 99.582031 10.15625 L 99.582031 12.476562 L 95.578125 12.476562 L 95.578125 15.1875 L 100.109375 15.1875 L 100.109375 17.601562 L 92.585938 17.601562 L 92.585938 5.246094 L 100.109375 5.246094 L 100.109375 7.65625 Z M 111.816406 17.601562 L 109.261719 12.9375 L 108.542969 12.9375 L 108.542969 17.601562 L 105.550781 17.601562 L 105.550781 5.246094 L 110.574219 5.246094 C 111.539062 5.246094 112.363281 5.414062 113.039062 5.753906 C 113.726562 6.09375 114.242188 6.566406 114.578125 7.164062 C 114.917969 7.75 115.085938 8.40625 115.085938 9.132812 C 115.085938 9.957031 114.855469 10.6875 114.386719 11.335938 C 113.933594 11.980469 113.253906 12.4375 112.359375 12.707031 L 115.191406 17.601562 Z M 108.542969 10.804688 L 110.398438 10.804688 C 110.945312 10.804688 111.355469 10.671875 111.621094 10.402344 C 111.902344 10.132812 112.042969 9.75 112.042969 9.257812 C 112.042969 8.789062 111.902344 8.417969 111.621094 8.148438 C 111.355469 7.878906 110.945312 7.742188 110.398438 7.742188 L 108.542969 7.742188 Z M 128.617188 9.152344 C 128.398438 8.742188 128.074219 8.429688 127.65625 8.21875 C 127.246094 7.996094 126.765625 7.886719 126.203125 7.886719 C 125.234375 7.886719 124.460938 8.207031 123.875 8.851562 C 123.292969 9.488281 123 10.335938 123 11.40625 C 123 12.542969 123.304688 13.433594 123.910156 14.078125 C 124.53125 14.714844 125.375 15.03125 126.449219 15.03125 C 127.183594 15.03125 127.800781 14.84375 128.304688 14.46875 C 128.816406 14.089844 129.191406 13.550781 129.421875 12.847656 L 125.625 12.847656 L 125.625 10.628906 L 132.136719 10.628906 L 132.136719 13.429688 C 131.914062 14.179688 131.535156 14.878906 131 15.523438 C 130.472656 16.167969 129.800781 16.691406 128.984375 17.089844 C 128.167969 17.488281 127.246094 17.6875 126.222656 17.6875 C 125.007812 17.6875 123.921875 17.425781 122.96875 16.894531 C 122.023438 16.355469 121.28125 15.609375 120.746094 14.660156 C 120.21875 13.710938 119.957031 12.625 119.957031 11.40625 C 119.957031 10.183594 120.21875 9.097656 120.746094 8.148438 C 121.28125 7.1875 122.023438 6.441406 122.96875 5.914062 C 123.910156 5.375 124.992188 5.105469 126.203125 5.105469 C 127.671875 5.105469 128.910156 5.460938 129.914062 6.175781 C 130.929688 6.894531 131.597656 7.886719 131.925781 9.152344 Z M 147.824219 5.246094 L 143.574219 13.515625 L 143.574219 17.601562 L 140.582031 17.601562 L 140.582031 13.515625 L 136.328125 5.246094 L 139.722656 5.246094 L 142.105469 10.417969 L 144.464844 5.246094 Z M 147.824219 5.246094 "/>
<path style=" stroke:none;fill-rule:nonzero;fill:url(#linear0);" d="M 64.589844 6.1875 L 64.589844 8.6875 L 68.597656 8.6875 L 68.597656 11.011719 L 64.589844 11.011719 L 64.589844 13.722656 L 69.121094 13.722656 L 69.121094 16.132812 L 61.597656 16.132812 L 61.597656 3.777344 L 69.121094 3.777344 L 69.121094 6.1875 Z M 64.589844 6.1875 "/>
</g>
</svg>
