<?xml version="1.0" encoding="UTF-8"?>
<svg xmlns="http://www.w3.org/2000/svg" xmlns:xlink="http://www.w3.org/1999/xlink" width="334px" height="409px" viewBox="0 0 334 409" version="1.1">
<g id="surface1">
<path style=" stroke:none;fill-rule:nonzero;fill:rgb(11.764706%,12.156863%,14.117647%);fill-opacity:1;" d="M 145.746094 399.367188 L 33.230469 367.570312 C 16.355469 362.800781 6.519531 345.203125 11.304688 328.34375 L 95.625 31.171875 C 100.40625 14.3125 118.027344 4.472656 134.90625 9.242188 L 247.417969 41.039062 C 264.296875 45.808594 274.132812 63.40625 269.347656 80.265625 C 237.582031 200.195312 203.238281 334.839844 185.027344 377.4375 C 180.246094 394.300781 162.621094 404.136719 145.746094 399.367188 Z M 145.746094 399.367188 "/>
<path style=" stroke:none;fill-rule:nonzero;fill:rgb(27.058824%,27.45098%,32.156863%);fill-opacity:1;" d="M 248.601562 159.476562 C 247.886719 159.273438 247.140625 159.6875 246.941406 160.402344 L 235.199219 201.792969 C 234.996094 202.507812 235.414062 203.25 236.128906 203.453125 C 236.839844 203.652344 237.585938 203.238281 237.789062 202.523438 L 249.527344 161.132812 C 249.730469 160.421875 249.316406 159.675781 248.601562 159.476562 Z M 248.601562 159.476562 "/>
<path style=" stroke:none;fill-rule:nonzero;fill:rgb(16.862745%,17.254902%,20%);fill-opacity:1;" d="M 266.433594 79.445312 L 182.117188 376.609375 C 177.953125 391.285156 163.113281 400.058594 148.394531 396.902344 L 148.386719 396.902344 C 148.167969 396.855469 147.953125 396.808594 147.730469 396.75 C 147.34375 396.664062 146.960938 396.5625 146.570312 396.453125 C 146.570312 396.453125 145.175781 395.945312 142.628906 395.015625 C 140.054688 394.078125 136.3125 392.707031 131.648438 390.976562 C 130.25 390.464844 128.773438 389.914062 127.21875 389.335938 C 124.121094 388.179688 120.71875 386.910156 117.074219 385.53125 C 115.621094 384.988281 114.121094 384.417969 112.585938 383.835938 C 104.742188 380.871094 95.964844 377.519531 86.730469 373.917969 C 85.164062 373.3125 83.589844 372.699219 82.003906 372.078125 C 81.589844 371.914062 13.234375 332.625 14.21875 329.160156 L 98.535156 31.996094 C 102.871094 16.710938 118.785156 7.828125 134.082031 12.152344 L 150.617188 16.824219 C 153.257812 17.570312 154.796875 20.230469 154.277344 22.925781 C 154.246094 23.105469 154.214844 23.285156 154.199219 23.46875 C 153.925781 26.25 155.832031 28.78125 158.527344 29.539062 L 216.640625 45.964844 C 219.335938 46.726562 222.285156 45.570312 223.515625 43.058594 C 223.597656 42.894531 223.664062 42.722656 223.734375 42.554688 C 224.707031 39.984375 227.414062 38.53125 230.054688 39.277344 L 246.589844 43.949219 C 261.886719 48.273438 270.769531 64.160156 266.433594 79.445312 Z M 266.433594 79.445312 "/>
<path style=" stroke:none;fill-rule:nonzero;fill:rgb(27.058824%,27.45098%,32.156863%);fill-opacity:1;" d="M 81.390625 78.664062 C 80.675781 78.460938 79.929688 78.878906 79.730469 79.589844 L 76.792969 89.9375 C 76.589844 90.652344 77.007812 91.394531 77.71875 91.597656 C 78.433594 91.800781 79.179688 91.382812 79.382812 90.671875 L 82.316406 80.324219 C 82.519531 79.609375 82.105469 78.863281 81.390625 78.664062 Z M 81.390625 78.664062 "/>
<path style=" stroke:none;fill-rule:nonzero;fill:rgb(27.058824%,27.45098%,32.156863%);fill-opacity:1;" d="M 72.585938 109.703125 C 71.875 109.503906 71.128906 109.917969 70.925781 110.632812 L 65.238281 130.679688 C 65.035156 131.394531 65.453125 132.136719 66.167969 132.339844 C 66.878906 132.542969 67.625 132.125 67.828125 131.414062 L 73.515625 111.363281 C 73.71875 110.652344 73.300781 109.90625 72.585938 109.703125 Z M 72.585938 109.703125 "/>
<path style=" stroke:none;fill-rule:nonzero;fill:rgb(27.058824%,27.45098%,32.156863%);fill-opacity:1;" d="M 64.519531 138.160156 C 63.804688 137.957031 63.058594 138.375 62.855469 139.085938 L 57.167969 159.136719 C 56.96875 159.851562 57.382812 160.59375 58.097656 160.796875 C 58.8125 160.996094 59.554688 160.582031 59.757812 159.867188 L 65.445312 139.820312 C 65.648438 139.105469 65.230469 138.363281 64.519531 138.160156 Z M 64.519531 138.160156 "/>
<path style=" stroke:none;fill-rule:nonzero;fill:rgb(27.058824%,27.45098%,32.156863%);fill-opacity:1;" d="M 148.828125 21.238281 L 124.058594 14.234375 C 123.925781 14.199219 123.785156 14.277344 123.746094 14.410156 L 122.964844 17.160156 C 122.929688 17.292969 123.007812 17.433594 123.140625 17.472656 L 147.910156 24.472656 C 148.046875 24.511719 148.1875 24.433594 148.222656 24.300781 L 149.003906 21.550781 C 149.042969 21.414062 148.964844 21.277344 148.828125 21.238281 Z M 148.828125 21.238281 "/>
<path style=" stroke:none;fill-rule:nonzero;fill:rgb(27.058824%,27.45098%,32.156863%);fill-opacity:1;" d="M 231.929688 48.230469 C 233.359375 48.636719 234.847656 47.804688 235.253906 46.375 C 235.660156 44.945312 234.828125 43.460938 233.398438 43.054688 C 231.96875 42.652344 230.480469 43.484375 230.074219 44.910156 C 229.667969 46.339844 230.5 47.828125 231.929688 48.230469 Z M 231.929688 48.230469 "/>
<path style=" stroke:none;fill-rule:nonzero;fill:rgb(27.058824%,27.45098%,32.156863%);fill-opacity:1;" d="M 239.054688 50.246094 C 240.484375 50.648438 241.972656 49.820312 242.378906 48.390625 C 242.78125 46.960938 241.953125 45.476562 240.519531 45.070312 C 239.089844 44.667969 237.601562 45.496094 237.195312 46.925781 C 236.792969 48.355469 237.621094 49.839844 239.054688 50.246094 Z M 239.054688 50.246094 "/>
<path style=" stroke:none;fill-rule:nonzero;fill:rgb(27.058824%,27.45098%,32.156863%);fill-opacity:1;" d="M 246.175781 52.261719 C 247.605469 52.664062 249.09375 51.832031 249.5 50.40625 C 249.90625 48.976562 249.078125 47.488281 247.644531 47.085938 C 246.214844 46.679688 244.726562 47.511719 244.320312 48.941406 C 243.917969 50.371094 244.746094 51.855469 246.175781 52.261719 Z M 246.175781 52.261719 "/>
<path style=" stroke:none;fill-rule:nonzero;fill:rgb(97.647059%,31.764706%,66.666667%);fill-opacity:1;" d="M 263.234375 387.050781 L 256.746094 387.050781 L 253.660156 362.054688 L 263.238281 362.054688 Z M 263.234375 387.050781 "/>
<path style=" stroke:none;fill-rule:nonzero;fill:rgb(11.764706%,12.156863%,14.117647%);fill-opacity:1;" d="M 241 386.902344 C 240.796875 387.246094 240.691406 388.339844 240.691406 388.734375 C 240.691406 389.949219 241.679688 390.9375 242.894531 390.9375 L 262.992188 390.9375 C 263.824219 390.9375 264.496094 390.265625 264.496094 389.433594 L 264.496094 388.597656 C 264.496094 388.597656 265.492188 386.085938 263.445312 382.992188 C 263.445312 382.992188 260.898438 385.417969 257.097656 381.621094 L 255.976562 379.59375 L 247.859375 385.519531 L 243.363281 386.070312 C 242.378906 386.191406 241.507812 386.050781 241 386.902344 Z M 241 386.902344 "/>
<path style=" stroke:none;fill-rule:nonzero;fill:rgb(97.647059%,31.764706%,66.666667%);fill-opacity:1;" d="M 331.75 378.945312 L 325.816406 381.574219 L 312.828125 359.988281 L 321.582031 356.101562 Z M 331.75 378.945312 "/>
<path style=" stroke:none;fill-rule:nonzero;fill:rgb(11.764706%,12.156863%,14.117647%);fill-opacity:1;" d="M 311.371094 387.828125 C 311.324219 388.222656 311.671875 389.269531 311.832031 389.628906 C 312.328125 390.738281 313.628906 391.238281 314.742188 390.746094 L 333.109375 382.59375 C 333.867188 382.253906 334.207031 381.367188 333.871094 380.609375 L 333.53125 379.847656 C 333.53125 379.847656 333.417969 377.148438 330.285156 375.152344 C 330.285156 375.152344 328.949219 378.398438 323.929688 376.472656 L 322.082031 375.074219 L 317.078125 383.78125 L 313.191406 386.109375 C 312.339844 386.621094 311.488281 386.847656 311.371094 387.828125 Z M 311.371094 387.828125 "/>
<path style=" stroke:none;fill-rule:nonzero;fill:rgb(11.764706%,12.156863%,14.117647%);fill-opacity:1;" d="M 249.132812 230.636719 L 243.359375 242.734375 L 253.171875 368.347656 L 265.4375 368.347656 L 270.480469 285.953125 L 314.507812 368.347656 L 329.558594 368.347656 L 306.835938 309.574219 L 291.253906 232.941406 Z M 249.132812 230.636719 "/>
<path style=" stroke:none;fill-rule:nonzero;fill:rgb(44.313725%,17.647059%,87.843137%);fill-opacity:1;" d="M 280.027344 153.035156 L 264.8125 153.035156 L 259.230469 161.78125 L 246.644531 167.789062 L 249.382812 205.496094 L 248.007812 232.992188 L 249.890625 232.9375 C 263.316406 232.542969 276.738281 234.726562 289.203125 239.734375 C 292.398438 241.023438 295.75 241.738281 298.636719 241.019531 C 298.636719 241.019531 297.539062 236.648438 296.445312 235.554688 C 295.351562 234.460938 294.804688 233.558594 295.351562 232.917969 C 295.898438 232.273438 296.992188 231.730469 295.898438 230.636719 C 294.804688 229.542969 294.804688 228.164062 294.804688 228.164062 L 291.519531 203.859375 L 298.085938 169.429688 L 284.40625 161.78125 Z M 280.027344 153.035156 "/>
<path style=" stroke:none;fill-rule:nonzero;fill:rgb(97.647059%,31.764706%,66.666667%);fill-opacity:1;" d="M 306.175781 200.707031 L 305.761719 232.953125 L 297.722656 261.703125 L 291.300781 259.308594 L 294.152344 232.957031 L 293.777344 197.300781 Z M 306.175781 200.707031 "/>
<path style=" stroke:none;fill-rule:nonzero;fill:rgb(97.647059%,31.764706%,66.666667%);fill-opacity:1;" d="M 297.695312 266.335938 C 298.449219 262.203125 297.070312 258.492188 294.609375 258.042969 C 292.152344 257.597656 289.550781 260.585938 288.796875 264.71875 C 288.042969 268.851562 289.425781 272.566406 291.882812 273.011719 C 294.339844 273.460938 296.941406 270.472656 297.695312 266.335938 Z M 297.695312 266.335938 "/>
<path style=" stroke:none;fill-rule:nonzero;fill:rgb(44.313725%,17.647059%,87.843137%);fill-opacity:1;" d="M 294.804688 167.789062 C 294.804688 167.789062 303.871094 169.191406 303.988281 176.960938 C 304.109375 184.730469 312.863281 197.300781 307.390625 207.136719 L 293.164062 209.324219 L 285.5 181.453125 L 294.257812 166.699219 "/>
<path style=" stroke:none;fill-rule:nonzero;fill:rgb(97.647059%,31.764706%,66.666667%);fill-opacity:1;" d="M 253.421875 195.027344 L 235.351562 221.757812 L 212.835938 241.386719 L 208.78125 235.867188 L 225.648438 215.402344 L 244.929688 185.386719 Z M 253.421875 195.027344 "/>
<path style=" stroke:none;fill-rule:nonzero;fill:rgb(97.647059%,31.764706%,66.666667%);fill-opacity:1;" d="M 210.265625 245.25 C 213.167969 242.207031 214.054688 238.34375 212.246094 236.625 C 210.4375 234.902344 206.617188 235.976562 203.714844 239.019531 C 200.8125 242.0625 199.925781 245.921875 201.738281 247.644531 C 203.546875 249.363281 207.363281 248.292969 210.265625 245.25 Z M 210.265625 245.25 "/>
<path style=" stroke:none;fill-rule:nonzero;fill:rgb(44.313725%,17.647059%,87.843137%);fill-opacity:1;" d="M 262.003906 161.277344 C 262.003906 161.277344 268.8125 167.417969 264.640625 173.980469 C 260.472656 180.539062 260.882812 195.84375 250.902344 201.070312 L 237.808594 195.101562 C 238.910156 184.324219 239.554688 173.148438 246.71875 167.601562 L 262.144531 160.066406 "/>
<path style=" stroke:none;fill-rule:nonzero;fill:rgb(97.647059%,31.764706%,66.666667%);fill-opacity:1;" d="M 270.058594 150.78125 C 277.578125 150.78125 283.675781 144.695312 283.675781 137.1875 C 283.675781 129.679688 277.578125 123.59375 270.058594 123.59375 C 262.539062 123.59375 256.445312 129.679688 256.445312 137.1875 C 256.445312 144.695312 262.539062 150.78125 270.058594 150.78125 Z M 270.058594 150.78125 "/>
<path style=" stroke:none;fill-rule:nonzero;fill:rgb(11.764706%,12.156863%,14.117647%);fill-opacity:1;" d="M 280.058594 148.359375 C 280.808594 148.488281 281.6875 146.671875 282.53125 144.902344 C 284.292969 141.203125 285.410156 138.851562 285.496094 135.523438 C 285.570312 132.691406 284.78125 133.433594 284.011719 127.132812 C 283.761719 125.054688 280.203125 125.058594 279.480469 124.070312 C 278.257812 122.40625 280.132812 121.71875 277.09375 120.714844 C 271.394531 118.839844 268.820312 121.753906 265.203125 122.003906 C 265.109375 122.011719 263.316406 123.761719 262.316406 123.851562 C 260.558594 124.011719 258.027344 123.738281 256.894531 121.070312 C 255.832031 118.574219 255.128906 125.867188 256.078125 126.769531 C 256.882812 127.539062 258.273438 129.460938 258.308594 129.601562 C 258.347656 129.757812 255.003906 126.0625 254.445312 127.585938 C 254.046875 128.683594 255.308594 134.324219 256.332031 134.539062 C 257.183594 134.714844 259.273438 131.902344 258.800781 133.054688 C 257.710938 135.730469 264.28125 137.4375 272.148438 132.070312 C 272.429688 131.878906 272.164062 132.183594 273.136719 134.539062 C 274.367188 137.507812 274.640625 137.667969 274.621094 138.484375 C 274.574219 140.257812 273.242188 140.777344 273.632812 141.941406 C 273.949219 142.882812 275.179688 143.613281 276.105469 143.421875 C 277.148438 143.207031 277.324219 141.917969 278.082031 141.941406 C 278.726562 141.960938 279.496094 142.933594 279.5625 143.917969 C 279.707031 145.984375 276.640625 146.554688 276.105469 149.347656 C 275.800781 150.921875 279.371094 148.242188 280.058594 148.359375 Z M 280.058594 148.359375 "/>
<path style=" stroke:none;fill-rule:nonzero;fill:rgb(21.568627%,21.960784%,25.490196%);fill-opacity:1;" d="M 182.527344 279.84375 C 190.890625 250.359375 170.53125 227.078125 144.203125 211.335938 C 110.445312 191.152344 78.023438 203.511719 75.597656 249.605469 C 73.984375 280.210938 95.023438 332.511719 116.144531 310.277344 C 140.3125 284.835938 174.167969 309.328125 182.527344 279.84375 Z M 182.527344 279.84375 "/>
<path style=" stroke:none;fill-rule:nonzero;fill:rgb(11.764706%,12.156863%,14.117647%);fill-opacity:1;" d="M 112.179688 254.273438 L 106.589844 249.390625 C 108.191406 253.832031 108.835938 260.246094 108.757812 265.179688 C 112.039062 261.488281 116.855469 257.199219 121.042969 255.007812 L 113.722656 254.835938 C 123.769531 235.433594 143.78125 225.121094 161.894531 230.238281 L 162.363281 229.566406 C 143.441406 224.222656 122.554688 234.0625 112.179688 254.273438 Z M 112.179688 254.273438 "/>
<path style=" stroke:none;fill-rule:nonzero;fill:rgb(92.156863%,18.431373%,57.647059%);fill-opacity:1;" d="M 133.011719 294.039062 L 92.203125 282.503906 C 90.472656 282.011719 89.460938 280.207031 89.953125 278.476562 C 90.445312 276.75 92.25 275.738281 93.980469 276.226562 L 134.789062 287.761719 C 136.519531 288.253906 137.53125 290.058594 137.039062 291.789062 C 136.550781 293.519531 134.742188 294.527344 133.011719 294.039062 Z M 133.011719 294.039062 "/>
<path style=" stroke:none;fill-rule:nonzero;fill:rgb(27.058824%,27.45098%,32.156863%);fill-opacity:1;" d="M 217.230469 142.339844 L 193.652344 225.429688 C 191.566406 232.777344 183.886719 237.0625 176.53125 234.984375 L 93.363281 211.484375 C 86.007812 209.402344 81.722656 201.734375 83.804688 194.386719 L 107.382812 111.296875 C 109.46875 103.949219 117.148438 99.664062 124.503906 101.742188 L 207.671875 125.242188 C 215.027344 127.324219 219.316406 134.992188 217.230469 142.339844 Z M 176.976562 233.417969 C 183.476562 235.253906 190.242188 231.480469 192.082031 224.984375 L 203.96875 183.09375 C 212.269531 153.847656 195.265625 123.433594 165.988281 115.160156 L 124.058594 103.308594 C 117.558594 101.472656 110.796875 105.25 108.953125 111.742188 L 85.375 194.832031 C 83.53125 201.324219 87.308594 208.078125 93.808594 209.914062 Z M 176.976562 233.417969 "/>
<path style=" stroke:none;fill-rule:nonzero;fill:rgb(11.764706%,12.156863%,14.117647%);fill-opacity:1;" d="M 167.527344 150.566406 L 140.671875 142.972656 C 139.992188 142.78125 139.597656 142.074219 139.792969 141.398438 C 139.984375 140.722656 140.691406 140.328125 141.367188 140.519531 L 168.222656 148.109375 C 168.898438 148.300781 169.292969 149.007812 169.101562 149.683594 C 168.910156 150.359375 168.203125 150.757812 167.527344 150.566406 Z M 167.527344 150.566406 "/>
<path style=" stroke:none;fill-rule:nonzero;fill:rgb(11.764706%,12.156863%,14.117647%);fill-opacity:1;" d="M 160.113281 176.710938 L 133.257812 169.121094 C 132.578125 168.929688 132.183594 168.222656 132.375 167.546875 C 132.570312 166.867188 133.277344 166.472656 133.953125 166.664062 L 160.808594 174.253906 C 161.484375 174.445312 161.878906 175.152344 161.6875 175.832031 C 161.496094 176.507812 160.789062 176.902344 160.113281 176.710938 Z M 160.113281 176.710938 "/>
<path style=" stroke:none;fill-rule:nonzero;fill:rgb(11.764706%,12.156863%,14.117647%);fill-opacity:1;" d="M 136.546875 208.988281 L 109.691406 201.394531 C 109.015625 201.203125 108.621094 200.5 108.8125 199.820312 C 109.003906 199.144531 109.710938 198.75 110.386719 198.941406 L 137.242188 206.53125 C 137.921875 206.722656 138.316406 207.429688 138.121094 208.105469 C 137.929688 208.785156 137.222656 209.179688 136.546875 208.988281 Z M 136.546875 208.988281 "/>
<path style=" stroke:none;fill-rule:nonzero;fill:rgb(11.764706%,12.156863%,14.117647%);fill-opacity:1;" d="M 178.226562 167.722656 L 122.550781 151.980469 C 121.871094 151.789062 121.476562 151.082031 121.667969 150.40625 C 121.863281 149.730469 122.570312 149.332031 123.246094 149.523438 L 178.925781 165.265625 C 179.601562 165.457031 179.996094 166.164062 179.804688 166.839844 C 179.613281 167.515625 178.90625 167.914062 178.226562 167.722656 Z M 178.226562 167.722656 "/>
</g>
</svg>
